# xmcd
#
# Track frame offsets:
# 150
# 11909
# 28289
# 44007
# 58104
# 81736
# 95590
# 112025
# 147071
# 160827
# 178072
# 201886
# 226803
# 245052
# 259849
# 279445
# 301702
#
# Disc length: 4262 seconds
#
#
# Revision: 5
# Processed by: cddbd v1.4PL0 Copyright (c) Steve Scherf et al.
# Submitted via: FreeRIP 2.35 
#
DISCID=f910a411
DTITLE=Marilyn Manson - Day Of The Dead
DYEAR=1900
DGENRE=Gothic Rock
TTITLE0=Intro
TTITLE1=Irresposible Hate Anthem
TTITLE2=The Death Song
TTITLE3=Disposable Teens
TTITLE4=Touriquet
TTITLE5=The Fight Song
TTITLE6=The Nobodies
TTITLE7=Lunchbox
TTITLE8=Rock Is Dead
TTITLE9=The Dope Show
TTITLE10=Cruci-fiction In Space
TTITLE11=Sweet Dreams
TTITLE12=Valentines Day
TTITLE13=The Love Song
TTITLE14=The Beutiful People
TTITLE15=The Great Big White World
TTITLE16=Cake And Sodemy
EXTD=
EXTT0=
EXTT1=
EXTT2=
EXTT3=
EXTT4=
EXTT5=
EXTT6=
EXTT7=
EXTT8=
EXTT9=
EXTT10=
EXTT11=
EXTT12=
EXTT13=
EXTT14=
EXTT15=
EXTT16=
PLAYORDER=
